<mxfile host="Electron" agent="Mozilla/5.0 (Windows NT 10.0; Win64; x64) AppleWebKit/537.36 (KHTML, like Gecko) draw.io/24.7.8 Chrome/128.0.6613.36 Electron/32.0.1 Safari/537.36" version="24.7.8">
  <diagram id="rDEfCVFA9co9Iwv8oEo7" name="第 1 页">
    <mxGraphModel dx="2058" dy="1188" grid="0" gridSize="10" guides="0" tooltips="1" connect="1" arrows="1" fold="1" page="0" pageScale="1" pageWidth="827" pageHeight="1169" background="#ffffff" math="0" shadow="0">
      <root>
        <mxCell id="0" />
        <mxCell id="1" parent="0" />
        <mxCell id="26" value="" style="rounded=0;whiteSpace=wrap;html=1;fontColor=#000000;fillColor=none;strokeColor=#000000;" parent="1" vertex="1">
          <mxGeometry x="282" y="54" width="626" height="420" as="geometry" />
        </mxCell>
        <mxCell id="4" value="&lt;font color=&quot;#000000&quot;&gt;协调节点&lt;/font&gt;" style="rounded=0;whiteSpace=wrap;html=1;fillColor=#fff2cc;gradientColor=#ffd966;strokeColor=#d6b656;" parent="1" vertex="1">
          <mxGeometry x="320" y="158.5" width="118" height="40" as="geometry" />
        </mxCell>
        <mxCell id="5" value="&lt;font color=&quot;#000000&quot;&gt;协调节点&lt;/font&gt;" style="rounded=0;whiteSpace=wrap;html=1;fillColor=#fff2cc;gradientColor=#ffd966;strokeColor=#d6b656;" parent="1" vertex="1">
          <mxGeometry x="320" y="218.5" width="118" height="40" as="geometry" />
        </mxCell>
        <mxCell id="6" value="&lt;font color=&quot;#000000&quot;&gt;协调节点&lt;/font&gt;" style="rounded=0;whiteSpace=wrap;html=1;fillColor=#fff2cc;gradientColor=#ffd966;strokeColor=#d6b656;" parent="1" vertex="1">
          <mxGeometry x="320" y="272.5" width="118" height="40" as="geometry" />
        </mxCell>
        <mxCell id="7" value="&lt;font color=&quot;#000000&quot;&gt;协调节点&lt;/font&gt;" style="rounded=0;whiteSpace=wrap;html=1;fillColor=#fff2cc;gradientColor=#ffd966;strokeColor=#d6b656;" parent="1" vertex="1">
          <mxGeometry x="320" y="330.5" width="118" height="40" as="geometry" />
        </mxCell>
        <mxCell id="17" value="" style="edgeStyle=none;html=1;fontColor=#000000;" parent="1" edge="1">
          <mxGeometry relative="1" as="geometry">
            <mxPoint x="342" y="358" as="targetPoint" />
          </mxGeometry>
        </mxCell>
        <mxCell id="14" value="&lt;span style=&quot;color: rgb(0 , 0 , 0)&quot;&gt;数据节点&lt;/span&gt;" style="ellipse;whiteSpace=wrap;html=1;fillColor=#fff2cc;strokeColor=#d6b656;rounded=0;gradientColor=#ffd966;" parent="1" vertex="1">
          <mxGeometry x="515" y="97" width="120" height="60" as="geometry" />
        </mxCell>
        <mxCell id="18" value="&lt;span style=&quot;color: rgb(0 , 0 , 0)&quot;&gt;数据节点&lt;/span&gt;" style="ellipse;whiteSpace=wrap;html=1;fillColor=#fff2cc;strokeColor=#d6b656;rounded=0;gradientColor=#ffd966;" parent="1" vertex="1">
          <mxGeometry x="515" y="241" width="120" height="60" as="geometry" />
        </mxCell>
        <mxCell id="19" value="&lt;span style=&quot;color: rgb(0 , 0 , 0)&quot;&gt;数据节点&lt;/span&gt;" style="ellipse;whiteSpace=wrap;html=1;fillColor=#fff2cc;strokeColor=#d6b656;rounded=0;gradientColor=#ffd966;" parent="1" vertex="1">
          <mxGeometry x="515" y="170" width="120" height="60" as="geometry" />
        </mxCell>
        <mxCell id="20" value="&lt;span style=&quot;color: rgb(0 , 0 , 0)&quot;&gt;协调节点&lt;/span&gt;" style="ellipse;whiteSpace=wrap;html=1;fillColor=#fff2cc;strokeColor=#d6b656;rounded=0;gradientColor=#ffd966;" parent="1" vertex="1">
          <mxGeometry x="515" y="315" width="120" height="60" as="geometry" />
        </mxCell>
        <mxCell id="21" value="&lt;span style=&quot;color: rgb(0 , 0 , 0)&quot;&gt;协调节点&lt;/span&gt;" style="ellipse;whiteSpace=wrap;html=1;fillColor=#fff2cc;strokeColor=#d6b656;rounded=0;gradientColor=#ffd966;" parent="1" vertex="1">
          <mxGeometry x="515" y="389" width="120" height="60" as="geometry" />
        </mxCell>
        <mxCell id="22" value="&lt;font color=&quot;#000000&quot;&gt;master&lt;/font&gt;" style="ellipse;whiteSpace=wrap;html=1;aspect=fixed;fillColor=#fff2cc;gradientColor=#ffd966;strokeColor=#d6b656;" parent="1" vertex="1">
          <mxGeometry x="799" y="156" width="66" height="66" as="geometry" />
        </mxCell>
        <mxCell id="23" value="&lt;font color=&quot;#000000&quot;&gt;master&lt;/font&gt;" style="ellipse;whiteSpace=wrap;html=1;aspect=fixed;fillColor=#fff2cc;gradientColor=#ffd966;strokeColor=#d6b656;" parent="1" vertex="1">
          <mxGeometry x="707" y="217" width="69" height="69" as="geometry" />
        </mxCell>
        <mxCell id="25" value="&lt;font color=&quot;#000000&quot;&gt;master&lt;/font&gt;" style="ellipse;whiteSpace=wrap;html=1;aspect=fixed;fillColor=#fff2cc;gradientColor=#ffd966;strokeColor=#d6b656;" parent="1" vertex="1">
          <mxGeometry x="799" y="280" width="69" height="69" as="geometry" />
        </mxCell>
        <mxCell id="27" value="" style="verticalLabelPosition=bottom;verticalAlign=top;html=1;shape=mxgraph.basic.8_point_star;fontColor=#000000;strokeColor=#000000;fillColor=none;" parent="1" vertex="1">
          <mxGeometry x="732.5" y="263" width="18" height="17" as="geometry" />
        </mxCell>
        <mxCell id="29" value="" style="shape=flexArrow;endArrow=classic;html=1;fontColor=#000000;strokeColor=#666666;" parent="1" edge="1">
          <mxGeometry width="50" height="50" relative="1" as="geometry">
            <mxPoint x="449" y="266" as="sourcePoint" />
            <mxPoint x="503" y="266" as="targetPoint" />
          </mxGeometry>
        </mxCell>
        <mxCell id="36" style="edgeStyle=none;html=1;entryX=0;entryY=0.5;entryDx=0;entryDy=0;fillColor=#fff2cc;gradientColor=#ffd966;strokeColor=#d6b656;" parent="1" source="30" target="4" edge="1">
          <mxGeometry relative="1" as="geometry" />
        </mxCell>
        <mxCell id="37" style="edgeStyle=none;html=1;fillColor=#fff2cc;gradientColor=#ffd966;strokeColor=#d6b656;" parent="1" source="30" target="5" edge="1">
          <mxGeometry relative="1" as="geometry" />
        </mxCell>
        <mxCell id="38" style="edgeStyle=none;html=1;fillColor=#fff2cc;gradientColor=#ffd966;strokeColor=#d6b656;" parent="1" source="30" target="6" edge="1">
          <mxGeometry relative="1" as="geometry" />
        </mxCell>
        <mxCell id="39" style="edgeStyle=none;html=1;entryX=0;entryY=0.5;entryDx=0;entryDy=0;fillColor=#fff2cc;gradientColor=#ffd966;strokeColor=#d6b656;" parent="1" source="30" target="7" edge="1">
          <mxGeometry relative="1" as="geometry" />
        </mxCell>
        <mxCell id="30" value="&lt;font color=&quot;#000000&quot;&gt;LB&lt;/font&gt;" style="rounded=0;whiteSpace=wrap;html=1;fillColor=#fff2cc;gradientColor=#ffd966;strokeColor=#d6b656;" parent="1" vertex="1">
          <mxGeometry x="196" y="55" width="42" height="419" as="geometry" />
        </mxCell>
        <mxCell id="32" value="" style="shape=flexArrow;endArrow=classic;html=1;fontColor=#000000;strokeColor=#666666;" parent="1" edge="1">
          <mxGeometry width="50" height="50" relative="1" as="geometry">
            <mxPoint x="131" y="253.5" as="sourcePoint" />
            <mxPoint x="185" y="253.5" as="targetPoint" />
          </mxGeometry>
        </mxCell>
        <mxCell id="33" value="&lt;font color=&quot;#000000&quot;&gt;应用&lt;/font&gt;" style="shape=or;whiteSpace=wrap;html=1;fillColor=#fff2cc;gradientColor=#ffd966;strokeColor=#d6b656;" parent="1" vertex="1">
          <mxGeometry x="66" y="211.5" width="60" height="80" as="geometry" />
        </mxCell>
        <mxCell id="rSd2RV8xPUtuX60e50hQ-39" value="" style="rounded=0;whiteSpace=wrap;html=1;fontColor=#000000;fillColor=none;strokeColor=#000000;" vertex="1" parent="1">
          <mxGeometry x="178" y="605" width="676" height="454" as="geometry" />
        </mxCell>
        <mxCell id="rSd2RV8xPUtuX60e50hQ-40" value="&lt;font color=&quot;#000000&quot;&gt;协调节点&lt;/font&gt;" style="rounded=0;whiteSpace=wrap;html=1;fillColor=#fff2cc;gradientColor=#ffd966;strokeColor=#d6b656;" vertex="1" parent="1">
          <mxGeometry x="216" y="743.5" width="118" height="40" as="geometry" />
        </mxCell>
        <mxCell id="rSd2RV8xPUtuX60e50hQ-41" value="&lt;font color=&quot;#000000&quot;&gt;协调节点&lt;/font&gt;" style="rounded=0;whiteSpace=wrap;html=1;fillColor=#fff2cc;gradientColor=#ffd966;strokeColor=#d6b656;" vertex="1" parent="1">
          <mxGeometry x="216" y="803.5" width="118" height="40" as="geometry" />
        </mxCell>
        <mxCell id="rSd2RV8xPUtuX60e50hQ-42" value="&lt;font color=&quot;#000000&quot;&gt;协调节点&lt;/font&gt;" style="rounded=0;whiteSpace=wrap;html=1;fillColor=#fff2cc;gradientColor=#ffd966;strokeColor=#d6b656;" vertex="1" parent="1">
          <mxGeometry x="216" y="857.5" width="118" height="40" as="geometry" />
        </mxCell>
        <mxCell id="rSd2RV8xPUtuX60e50hQ-43" value="&lt;font color=&quot;#000000&quot;&gt;协调节点&lt;/font&gt;" style="rounded=0;whiteSpace=wrap;html=1;fillColor=#fff2cc;gradientColor=#ffd966;strokeColor=#d6b656;" vertex="1" parent="1">
          <mxGeometry x="216" y="915.5" width="118" height="40" as="geometry" />
        </mxCell>
        <mxCell id="rSd2RV8xPUtuX60e50hQ-44" value="&lt;span style=&quot;color: rgb(0 , 0 , 0)&quot;&gt;数据节点&lt;/span&gt;" style="ellipse;whiteSpace=wrap;html=1;fillColor=#fff2cc;strokeColor=#d6b656;rounded=0;gradientColor=#ffd966;" vertex="1" parent="1">
          <mxGeometry x="411" y="682" width="120" height="60" as="geometry" />
        </mxCell>
        <mxCell id="rSd2RV8xPUtuX60e50hQ-45" value="&lt;span style=&quot;color: rgb(0 , 0 , 0)&quot;&gt;数据节点&lt;/span&gt;" style="ellipse;whiteSpace=wrap;html=1;fillColor=#fff2cc;strokeColor=#d6b656;rounded=0;gradientColor=#ffd966;" vertex="1" parent="1">
          <mxGeometry x="411" y="826" width="120" height="60" as="geometry" />
        </mxCell>
        <mxCell id="rSd2RV8xPUtuX60e50hQ-46" value="&lt;span style=&quot;color: rgb(0 , 0 , 0)&quot;&gt;数据节点&lt;/span&gt;" style="ellipse;whiteSpace=wrap;html=1;fillColor=#fff2cc;strokeColor=#d6b656;rounded=0;gradientColor=#ffd966;" vertex="1" parent="1">
          <mxGeometry x="411" y="755" width="120" height="60" as="geometry" />
        </mxCell>
        <mxCell id="rSd2RV8xPUtuX60e50hQ-47" value="&lt;span style=&quot;color: rgb(0 , 0 , 0)&quot;&gt;协调节点&lt;/span&gt;" style="ellipse;whiteSpace=wrap;html=1;fillColor=#fff2cc;strokeColor=#d6b656;rounded=0;gradientColor=#ffd966;" vertex="1" parent="1">
          <mxGeometry x="411" y="900" width="120" height="60" as="geometry" />
        </mxCell>
        <mxCell id="rSd2RV8xPUtuX60e50hQ-48" value="&lt;span style=&quot;color: rgb(0 , 0 , 0)&quot;&gt;协调节点&lt;/span&gt;" style="ellipse;whiteSpace=wrap;html=1;fillColor=#fff2cc;strokeColor=#d6b656;rounded=0;gradientColor=#ffd966;" vertex="1" parent="1">
          <mxGeometry x="411" y="974" width="120" height="60" as="geometry" />
        </mxCell>
        <mxCell id="rSd2RV8xPUtuX60e50hQ-49" value="&lt;font color=&quot;#000000&quot;&gt;master&lt;/font&gt;" style="ellipse;whiteSpace=wrap;html=1;aspect=fixed;fillColor=#fff2cc;gradientColor=#ffd966;strokeColor=#d6b656;" vertex="1" parent="1">
          <mxGeometry x="772" y="755" width="66" height="66" as="geometry" />
        </mxCell>
        <mxCell id="rSd2RV8xPUtuX60e50hQ-50" value="&lt;font color=&quot;#000000&quot;&gt;master&lt;/font&gt;" style="ellipse;whiteSpace=wrap;html=1;aspect=fixed;fillColor=#fff2cc;gradientColor=#ffd966;strokeColor=#d6b656;" vertex="1" parent="1">
          <mxGeometry x="680" y="816" width="69" height="69" as="geometry" />
        </mxCell>
        <mxCell id="rSd2RV8xPUtuX60e50hQ-51" value="&lt;font color=&quot;#000000&quot;&gt;master&lt;/font&gt;" style="ellipse;whiteSpace=wrap;html=1;aspect=fixed;fillColor=#fff2cc;gradientColor=#ffd966;strokeColor=#d6b656;" vertex="1" parent="1">
          <mxGeometry x="772" y="879" width="69" height="69" as="geometry" />
        </mxCell>
        <mxCell id="rSd2RV8xPUtuX60e50hQ-52" value="" style="verticalLabelPosition=bottom;verticalAlign=top;html=1;shape=mxgraph.basic.8_point_star;fontColor=#000000;strokeColor=#000000;fillColor=none;" vertex="1" parent="1">
          <mxGeometry x="705.5" y="862" width="18" height="17" as="geometry" />
        </mxCell>
        <mxCell id="rSd2RV8xPUtuX60e50hQ-53" value="" style="shape=flexArrow;endArrow=classic;html=1;fontColor=#000000;strokeColor=#666666;" edge="1" parent="1">
          <mxGeometry width="50" height="50" relative="1" as="geometry">
            <mxPoint x="345" y="851" as="sourcePoint" />
            <mxPoint x="399" y="851" as="targetPoint" />
          </mxGeometry>
        </mxCell>
        <mxCell id="rSd2RV8xPUtuX60e50hQ-54" style="edgeStyle=none;html=1;entryX=0;entryY=0.5;entryDx=0;entryDy=0;fillColor=#fff2cc;gradientColor=#ffd966;strokeColor=#d6b656;" edge="1" parent="1" target="rSd2RV8xPUtuX60e50hQ-40">
          <mxGeometry relative="1" as="geometry">
            <mxPoint x="134" y="831.9660194174758" as="sourcePoint" />
          </mxGeometry>
        </mxCell>
        <mxCell id="rSd2RV8xPUtuX60e50hQ-55" style="edgeStyle=none;html=1;fillColor=#fff2cc;gradientColor=#ffd966;strokeColor=#d6b656;" edge="1" parent="1" target="rSd2RV8xPUtuX60e50hQ-41">
          <mxGeometry relative="1" as="geometry">
            <mxPoint x="134" y="846.1296296296296" as="sourcePoint" />
          </mxGeometry>
        </mxCell>
        <mxCell id="rSd2RV8xPUtuX60e50hQ-56" style="edgeStyle=none;html=1;fillColor=#fff2cc;gradientColor=#ffd966;strokeColor=#d6b656;" edge="1" parent="1" target="rSd2RV8xPUtuX60e50hQ-42">
          <mxGeometry relative="1" as="geometry">
            <mxPoint x="134" y="853.1296296296296" as="sourcePoint" />
          </mxGeometry>
        </mxCell>
        <mxCell id="rSd2RV8xPUtuX60e50hQ-57" style="edgeStyle=none;html=1;entryX=0;entryY=0.5;entryDx=0;entryDy=0;fillColor=#fff2cc;gradientColor=#ffd966;strokeColor=#d6b656;" edge="1" parent="1" target="rSd2RV8xPUtuX60e50hQ-43">
          <mxGeometry relative="1" as="geometry">
            <mxPoint x="134" y="867.0339805825242" as="sourcePoint" />
          </mxGeometry>
        </mxCell>
        <mxCell id="rSd2RV8xPUtuX60e50hQ-59" value="" style="shape=flexArrow;endArrow=classic;html=1;fontColor=#000000;strokeColor=#666666;" edge="1" parent="1">
          <mxGeometry width="50" height="50" relative="1" as="geometry">
            <mxPoint x="76" y="851" as="sourcePoint" />
            <mxPoint x="130" y="851" as="targetPoint" />
          </mxGeometry>
        </mxCell>
        <mxCell id="rSd2RV8xPUtuX60e50hQ-60" value="&lt;font color=&quot;#000000&quot;&gt;应用&lt;/font&gt;" style="shape=or;whiteSpace=wrap;html=1;fillColor=#fff2cc;gradientColor=#ffd966;strokeColor=#d6b656;" vertex="1" parent="1">
          <mxGeometry x="11" y="809" width="60" height="80" as="geometry" />
        </mxCell>
        <mxCell id="rSd2RV8xPUtuX60e50hQ-62" value="&lt;font style=&quot;font-size: 17px;&quot;&gt;Elasticsearch集群整体架构图&lt;/font&gt;" style="text;html=1;align=center;verticalAlign=middle;whiteSpace=wrap;rounded=0;strokeWidth=4;" vertex="1" parent="1">
          <mxGeometry x="405" y="615" width="246" height="30" as="geometry" />
        </mxCell>
        <mxCell id="rSd2RV8xPUtuX60e50hQ-63" value="" style="shape=curlyBracket;whiteSpace=wrap;html=1;rounded=1;flipH=1;labelPosition=right;verticalLabelPosition=middle;align=left;verticalAlign=middle;" vertex="1" parent="1">
          <mxGeometry x="544" y="718" width="20" height="282" as="geometry" />
        </mxCell>
        <mxCell id="rSd2RV8xPUtuX60e50hQ-65" value="" style="shape=flexArrow;endArrow=classic;startArrow=classic;html=1;rounded=0;" edge="1" parent="1">
          <mxGeometry width="100" height="100" relative="1" as="geometry">
            <mxPoint x="577" y="855.5" as="sourcePoint" />
            <mxPoint x="662" y="855.5" as="targetPoint" />
          </mxGeometry>
        </mxCell>
      </root>
    </mxGraphModel>
  </diagram>
</mxfile>
